PathFileType	4	(X/Y/Z)	C:\Users\°ÂÌØÂü\Desktop\20210112\bx_y_10_1801-Unnamed.trc
DataRate	CameraRate	NumFrames	NumMarkers	Units	OrigDataRate	OrigDataStartFrame	OrigNumFrames
50.00	50.00	       9	0	mm	50.00	176	       468
Frame#	Time	
		

176	3.500	-677.85278	272.29770	1511.94922	-517.44580	-72.23464	143.66833	-676.16870	175.26047	158.19406	-656.99866	153.74451	585.23419	-728.62054	-10.72874	1052.28101	-709.86243	154.50877	215.63834	-718.38879	288.24915	885.17389	-684.05310	-85.32446	1510.14185	-652.49652	215.81984	844.67249				-742.43268	261.35080	502.08762	-722.33783	283.81775	752.32397	-697.15723	254.17130	577.42444	-713.24335	72.16429	215.24794	-701.24640	-38.70042	619.11188				-666.29608	-72.17675	159.23795	-709.63800	257.80496	636.37952	-770.52423	225.26929	204.36856	-623.98871	-81.70895	156.56352	-882.53406	296.09598	144.57982	-675.82336	51.27225	160.91634	-604.28583	15.46260	170.24161	-561.58936	-40.66021	163.01569	-741.54865	-54.00154	714.90607	-596.19147	223.72418	173.90125	-666.90643	299.72546	159.39020	-629.47748	307.34329	161.26541	-561.33417	260.26395	164.93958	-528.31982	304.11014	146.25334	-669.82855	90.86211	1820.14319	-648.83850	-0.61879	517.56165	-643.05127	83.32529	1387.73962	-795.72858	173.87210	185.40273	-662.47388	65.80654	583.33331	-768.38879	-8.51855	207.00061	-793.77515	54.63332	176.08122	-753.85089	-38.91987	488.02597	-876.05151	-78.64049	141.43311	-755.98871	-70.86663	883.29639	-643.31085	213.46500	533.14685	-665.58954	-20.37876	828.86670	-701.85736	-36.42744	566.16974	
177	3.520	-683.36865	271.56607	1516.20117	-517.70752	-72.29429	143.29111	-675.98688	175.04971	158.32059	-661.09357	153.58949	585.64374	-726.41437	-10.89161	1055.18481	-710.08862	154.62650	215.63753	-716.32910	287.54663	885.65204	-689.67700	-85.27887	1514.77185	-651.08643	215.87555	844.52271				-745.76941	261.04938	502.32172	-722.70343	283.66174	753.73364	-701.01495	253.47159	577.94098	-713.92346	72.49934	215.44540	-703.82422	-37.73914	619.94781				-666.44922	-72.17979	159.23248	-712.75232	257.30957	637.13165	-770.96979	225.07716	204.08951	-624.09235	-81.67229	156.48160	-882.52289	296.28217	144.76390	-675.67950	51.18022	161.01015	-604.32758	15.38818	170.57089	-561.70709	-40.67425	163.10522	-742.84485	-52.72439	716.26221	-596.18402	223.63066	173.77509	-666.94745	299.83478	159.33029	-629.29547	307.10611	161.35272	-561.40564	260.34769	165.03494	-528.30536	304.21851	146.62169	-675.99963	90.88779	1824.83606	-651.45844	0.44068	518.13013	-646.30707	83.69530	1392.38611	-795.90417	174.07777	185.24492	-665.31647	67.02953	583.43158	-769.10834	-8.58267	206.58292	-793.62012	54.46532	175.81918	-756.34314	-38.20869	488.57782	-876.03320	-78.59757	141.50241	-754.32544	-70.83900	884.46136	-646.81482	212.74554	533.90704	-664.85498	-19.85295	828.90491	-704.99194	-35.14344	567.01813	
178	3.540	-688.61243	271.69498	1520.60144	-517.68262	-72.37424	143.38956	-676.32556	175.46379	158.09299	-664.82581	152.78722	585.73071	-723.73907	-11.91427	1058.24268	-710.43860	154.86569	215.87659	-714.16327	287.46579	886.92712	-695.72345	-85.01817	1519.13843	-650.03900	215.95892	844.31757				-748.70190	260.88400	502.41513	-723.22302	283.24255	754.37860	-704.63702	253.25378	578.76965	-714.45520	71.51895	215.88148	-706.49115	-37.29884	620.81299				-666.45978	-72.11236	159.16782	-716.05035	257.07281	637.99084	-771.32782	225.16580	204.01265	-623.97784	-81.70486	156.57602	-882.52582	296.01248	144.52502	-675.67834	51.09909	161.05507	-605.01331	15.06842	170.91925	-561.93274	-40.37422	163.06157				-596.25531	223.80411	173.83199	-666.91046	299.78146	159.20488	-629.47748	307.34329	161.26541	-561.54724	260.19275	165.11742	-528.16199	304.06500	146.50723	-681.85736	90.46465	1829.15686	-654.67554	1.84879	519.01550	-649.66241	84.65503	1397.11755	-796.40222	173.84143	185.72844	-668.96576	68.21153	583.72736	-769.49640	-8.32388	206.31119	-793.95367	54.42695	175.65897	-758.60028	-36.88878	488.31897	-875.99139	-78.70409	141.37393	-752.81372	-70.55076	885.18707	-650.81750	211.96149	534.40057	-664.31201	-19.34404	828.76581	-708.44153	-34.60996	567.95264	
179	3.560	-694.16345	271.78961	1524.36682	-517.53516	-72.38157	143.44977	-676.40863	175.57712	158.04703	-668.79895	152.01492	587.03851	-721.06268	-12.31692	1059.41809	-710.48541	154.96591	216.17984	-711.82330	287.45047	887.64685	-700.95618	-84.93044	1522.95679	-648.32019	215.44385	844.09253	-910.19910	113.71790	1039.80383	-752.48804	260.38959	503.00168	-723.83221	282.95737	755.84698	-708.77405	252.47816	578.97833	-714.69464	71.51012	216.12465	-709.49139	-35.81541	620.39294	-744.87549	-51.10661	718.61505	-666.53442	-72.13874	159.08434	-719.02441	256.14072	638.30585	-771.38782	225.14195	203.85649	-624.12244	-81.69690	156.59683	-882.60834	296.06894	144.52896	-675.86981	50.95655	161.45508	-605.24768	14.97287	171.00911	-562.29016	-40.22843	163.20023				-596.33807	223.82527	173.85066	-666.91046	299.78146	159.20488	-629.47748	307.34329	161.26541	-561.78931	260.18979	165.27881	-528.20758	304.25073	146.41353	-687.69470	90.37997	1833.17383	-657.45880	2.62006	519.71674	-652.13062	84.74190	1401.84521	-796.73480	174.28461	185.47929	-672.29858	68.97624	583.99750	-769.89215	-8.50992	206.38054	-794.03479	53.87754	175.40645	-761.66150	-36.61473	488.44550	-876.03320	-78.59757	141.50241	-750.88477	-70.60124	886.18713	-654.36066	211.80418	535.34863	-663.83154	-18.50058	828.30798	-711.31018	-33.55521	567.89374	
180	3.580	-699.39526	272.27267	1527.44580	-517.84558	-72.36862	143.54425	-676.50751	175.67468	157.96640	-673.53717	151.17458	586.65112	-718.42566	-12.44730	1060.76648	-710.77625	155.10619	216.26271	-709.94763	287.22556	888.38000	-706.21149	-85.10273	1526.69104	-647.06781	215.56943	843.33746	-907.72559	113.89414	1041.47986	-755.18726	259.82208	502.66562	-724.45245	282.20187	756.27332	-712.72742	251.73856	579.36365	-715.04236	70.98434	216.37463	-712.01904	-35.27692	621.10553	-745.54333	-49.84158	718.92902	-666.51550	-72.26707	159.03549	-722.54840	256.01617	639.37909	-771.62952	225.31410	203.81207	-624.04260	-81.80959	156.63695	-882.60828	296.14606	144.65137	-676.28979	51.04529	161.97360	-605.29504	14.73179	170.94957	-562.54688	-40.04255	163.50742				-596.32898	223.92442	173.95932	-666.86200	299.92859	159.41930	-629.30994	307.28363	161.36717	-561.76727	260.10229	165.30945	-528.28955	304.28879	146.54599	-693.59662	90.31679	1836.71582	-660.63373	3.62418	520.28082	-655.39758	84.96033	1406.29736	-796.85010	174.48001	185.38364	-675.54846	70.51575	584.22583	-769.78589	-8.39941	206.40326	-794.66663	53.78594	175.27924	-764.87860	-35.27759	488.99374	-876.03320	-78.59757	141.50241	-749.38940	-71.14977	887.47632	-658.05554	210.59517	535.90131	-663.86426	-18.28384	827.85321	-714.08972	-32.91684	569.03937	
181	3.600	-704.60999	272.19543	1530.86084	-517.80927	-72.23211	143.25896	-676.22675	175.36623	158.17360	-677.28204	150.54216	586.60529				-710.61334	155.09831	216.70796	-707.99603	286.78177	888.56757	-711.03082	-85.09343	1530.66406	-646.35205	215.52133	843.00085	-904.97992	113.88159	1042.26770	-758.76520	259.54141	503.00098	-725.03473	281.81561	756.66699	-716.31476	251.36591	579.92969	-715.25781	70.89224	216.35507	-714.99359	-34.39027	621.61542	-746.88116	-49.78817	720.23523	-666.55109	-72.21072	158.93808	-725.91406	255.23947	639.74561	-771.70062	225.14992	203.62163	-624.24091	-81.76038	156.67348	-882.58478	296.15625	144.63521	-676.41022	50.89414	162.11467	-605.25659	14.70272	171.15303	-562.82190	-39.99816	163.13985				-596.17352	223.78439	173.97035	-666.91046	299.78146	159.20488	-629.24969	306.99014	161.26755	-561.66364	260.05115	165.37662	-528.30511	304.04697	146.16425	-699.01862	90.07115	1839.93884	-662.58160	4.01255	521.50391	-657.02295	86.26057	1409.91809	-796.78046	174.43539	185.43817	-678.67700	70.61897	584.32324	-770.12598	-8.35964	206.40118	-794.77490	53.32458	174.78807	-767.13354	-34.84369	489.29385	-876.03320	-78.59757	141.50241	-748.38550	-71.39803	888.64349	-661.29285	209.86052	537.08350	-662.07898	-18.94783	828.63110	-717.58337	-31.06724	568.82947	
182	3.620	-709.57220	272.78159	1533.52246	-517.79913	-72.45341	143.21851	-676.48505	175.54666	158.17000	-682.03461	150.22594	586.60913				-710.98785	155.32742	217.01869	-705.99866	286.45917	889.14594	-716.12555	-84.92503	1533.99646	-644.94244	215.08150	842.20428	-902.28735	114.13709	1043.64355	-761.85675	258.62930	502.35538	-726.05292	281.33615	757.62085	-720.61218	250.33603	579.84033	-715.52795	70.83595	216.54420	-717.76062	-34.19049	621.92023	-747.85443	-49.32454	721.39343	-666.46820	-72.32333	159.07300	-729.02917	255.18813	640.60632	-771.78577	225.40149	203.59596	-624.27771	-81.84264	156.56494	-882.74310	296.04388	144.52455	-676.26111	50.62414	162.33264	-605.41315	14.34876	171.49324	-563.34277	-40.15903	163.27414				-596.37805	223.78439	173.96823	-666.78998	299.94775	159.35974	-629.41980	307.17670	161.35272	-561.86798	260.08966	165.30316	-528.22534	304.21732	146.76636	-704.61017	89.80525	1842.57544	-665.20618	4.55025	522.23389	-658.44550	86.55045	1413.10400	-796.59503	174.80453	184.63443	-681.77435	71.17663	584.59772	-770.53998	-8.63351	206.43651	-794.87531	53.24165	174.72960	-769.43329	-33.94769	489.64661	-875.61414	-78.39626	141.27904	-747.04987	-71.01215	888.60565	-665.25830	209.22621	537.13495	-661.29022	-19.08844	827.93054	-720.35010	-31.25838	570.08801	
183	3.640	-714.38092	272.87210	1535.45325	-517.66376	-72.40273	143.17354	-676.61401	175.56793	158.24042	-684.86420	149.63341	587.09149				-710.97119	155.70349	217.24960	-704.75134	286.45959	889.54620	-720.78046	-83.61835	1535.95935	-644.19293	214.55025	841.03754	-899.12775	113.68435	1044.37122	-765.29895	258.64511	503.24658	-726.32898	280.76440	757.54700	-723.57843	249.95247	580.06592	-715.58527	71.01260	216.87677	-720.50739	-33.56642	622.35870	-749.04791	-49.29724	722.62512	-666.51526	-72.46007	159.01230	-731.74500	254.67781	640.86957	-771.83130	225.25841	203.42810	-624.16089	-81.71065	156.58817	-882.53406	296.09598	144.57982	-676.29907	50.56326	162.43787	-605.34314	14.09646	171.82753	-563.50122	-40.10023	163.61194				-596.41809	223.93060	174.20760	-666.94745	299.83478	159.33029	-629.29712	307.25809	161.34703	-561.98438	260.03909	165.24150	-528.16248	304.13895	146.47519	-709.94098	90.05408	1844.99365	-668.12091	5.11778	522.98364	-660.77087	86.62224	1416.30359	-796.60773	174.82991	184.50639	-684.61102	71.87887	584.57813	-771.16254	-9.22443	206.24529	-795.12830	53.23177	174.53162	-771.93695	-33.45497	489.87338	-875.97748	-78.88188	141.21204	-745.65942	-70.29266	889.15582	-668.76221	209.09099	537.55542	-660.44385	-19.25105	827.13190	-723.69763	-29.66349	569.74939	
184	3.660	-719.24530	273.03497	1537.73486	-517.72015	-72.56969	143.09053	-676.59015	175.73541	158.47308	-689.14886	148.84001	587.09888				-710.81519	155.74721	217.41225	-703.08984	285.60596	889.13818	-725.52509	-83.74419	1538.77905				-896.03711	113.14498	1044.81018	-767.69751	258.40408	502.82166	-726.54919	280.54230	757.78625	-727.12567	249.38914	580.56244	-715.46936	70.66454	216.93550	-723.10529	-33.05783	622.95477	-749.77942	-47.99854	722.94885	-666.61139	-72.48050	158.94223	-734.38678	254.70299	641.90277	-772.03564	225.50941	203.53107	-624.38702	-81.69788	156.70290	-882.50885	296.21451	144.71526	-676.30774	50.40356	162.93884	-605.39911	13.97968	172.30630	-563.61914	-40.01306	163.58612				-596.35077	223.98358	174.20917	-666.91046	299.78146	159.20488	-629.28937	307.12646	161.09755	-561.77545	259.93002	165.38896	-528.24188	304.25183	146.46689	-715.27734	90.33795	1847.26538	-670.99451	5.94720	523.66602	-662.78296	87.24529	1419.05261	-796.58032	174.89189	184.49149	-687.53906	72.65763	584.34064	-771.61346	-9.18029	206.30632	-795.10205	53.20089	174.49371	-774.20618	-32.77266	490.04291	-876.02838	-78.54763	141.55200	-743.94373	-71.13613	890.10205	-671.72845	208.07158	538.30103	-659.35919	-18.59279	826.67920	
